<?xml version="1.0" encoding="UTF-8"?>
<!DOCTYPE svg PUBLIC "-//W3C//DTD SVG 1.1//EN" "http://www.w3.org/Graphics/SVG/1.1/DTD/svg11.dtd">
<svg version="1.2" width="124.23mm" height="124.23mm" viewBox="0 0 12423 12423" preserveAspectRatio="xMidYMid" fill-rule="evenodd" stroke-width="28.222" stroke-linejoin="round" xmlns="http://www.w3.org/2000/svg" xmlns:ooo="http://xml.openoffice.org/svg/export" xmlns:xlink="http://www.w3.org/1999/xlink" xmlns:presentation="http://sun.com/xmlns/staroffice/presentation" xmlns:smil="http://www.w3.org/2001/SMIL20/" xmlns:anim="urn:oasis:names:tc:opendocument:xmlns:animation:1.0" xml:space="preserve">
 <defs class="ClipPathGroup">
  <clipPath id="presentation_clip_path" clipPathUnits="userSpaceOnUse">
   <rect x="0" y="0" width="12423" height="12423"/>
  </clipPath>
  <clipPath id="presentation_clip_path_shrink" clipPathUnits="userSpaceOnUse">
   <rect x="12" y="12" width="12399" height="12399"/>
  </clipPath>
 </defs>
 <defs class="TextShapeIndex">
  <g ooo:slide="id1" ooo:id-list="id3"/>
 </defs>
 <defs class="EmbeddedBulletChars">
  <g id="bullet-char-template-57356" transform="scale(0.00048828125,-0.00048828125)">
   <path d="M 580,1141 L 1163,571 580,0 -4,571 580,1141 Z"/>
  </g>
  <g id="bullet-char-template-57354" transform="scale(0.00048828125,-0.00048828125)">
   <path d="M 8,1128 L 1137,1128 1137,0 8,0 8,1128 Z"/>
  </g>
  <g id="bullet-char-template-10146" transform="scale(0.00048828125,-0.00048828125)">
   <path d="M 174,0 L 602,739 174,1481 1456,739 174,0 Z M 1358,739 L 309,1346 659,739 1358,739 Z"/>
  </g>
  <g id="bullet-char-template-10132" transform="scale(0.00048828125,-0.00048828125)">
   <path d="M 2015,739 L 1276,0 717,0 1260,543 174,543 174,936 1260,936 717,1481 1274,1481 2015,739 Z"/>
  </g>
  <g id="bullet-char-template-10007" transform="scale(0.00048828125,-0.00048828125)">
   <path d="M 0,-2 C -7,14 -16,27 -25,37 L 356,567 C 262,823 215,952 215,954 215,979 228,992 255,992 264,992 276,990 289,987 310,991 331,999 354,1012 L 381,999 492,748 772,1049 836,1024 860,1049 C 881,1039 901,1025 922,1006 886,937 835,863 770,784 769,783 710,716 594,584 L 774,223 C 774,196 753,168 711,139 L 727,119 C 717,90 699,76 672,76 641,76 570,178 457,381 L 164,-76 C 142,-110 111,-127 72,-127 30,-127 9,-110 8,-76 1,-67 -2,-52 -2,-32 -2,-23 -1,-13 0,-2 Z"/>
  </g>
  <g id="bullet-char-template-10004" transform="scale(0.00048828125,-0.00048828125)">
   <path d="M 285,-33 C 182,-33 111,30 74,156 52,228 41,333 41,471 41,549 55,616 82,672 116,743 169,778 240,778 293,778 328,747 346,684 L 369,508 C 377,444 397,411 428,410 L 1163,1116 C 1174,1127 1196,1133 1229,1133 1271,1133 1292,1118 1292,1087 L 1292,965 C 1292,929 1282,901 1262,881 L 442,47 C 390,-6 338,-33 285,-33 Z"/>
  </g>
  <g id="bullet-char-template-9679" transform="scale(0.00048828125,-0.00048828125)">
   <path d="M 813,0 C 632,0 489,54 383,161 276,268 223,411 223,592 223,773 276,916 383,1023 489,1130 632,1184 813,1184 992,1184 1136,1130 1245,1023 1353,916 1407,772 1407,592 1407,412 1353,268 1245,161 1136,54 992,0 813,0 Z"/>
  </g>
  <g id="bullet-char-template-8226" transform="scale(0.00048828125,-0.00048828125)">
   <path d="M 346,457 C 273,457 209,483 155,535 101,586 74,649 74,723 74,796 101,859 155,911 209,963 273,989 346,989 419,989 480,963 531,910 582,859 608,796 608,723 608,648 583,586 532,535 482,483 420,457 346,457 Z"/>
  </g>
  <g id="bullet-char-template-8211" transform="scale(0.00048828125,-0.00048828125)">
   <path d="M -4,459 L 1135,459 1135,606 -4,606 -4,459 Z"/>
  </g>
  <g id="bullet-char-template-61548" transform="scale(0.00048828125,-0.00048828125)">
   <path d="M 173,740 C 173,903 231,1043 346,1159 462,1274 601,1332 765,1332 928,1332 1067,1274 1183,1159 1299,1043 1357,903 1357,740 1357,577 1299,437 1183,322 1067,206 928,148 765,148 601,148 462,206 346,322 231,437 173,577 173,740 Z"/>
  </g>
 </defs>
 <defs class="TextEmbeddedBitmaps"/>
 <g>
  <g id="id2" class="Master_Slide">
   <g id="bg-id2" class="Background"/>
   <g id="bo-id2" class="BackgroundObjects"/>
  </g>
 </g>
 <g class="SlideGroup">
  <g>
   <g id="container-id1">
    <g id="id1" class="Slide" clip-path="url(#presentation_clip_path)">
     <g class="Page">
      <g class="Graphic">
       <g id="id3">
        <rect class="BoundingBox" stroke="none" fill="none" x="0" y="0" width="12423" height="12423"/>
        <path fill="rgb(230,230,230)" stroke="none" d="M 12409,9392 C 12409,9686 12208,9934 11936,10007 11884,10021 11829,10028 11772,10028 L 1034,10028 C 682,10028 397,9743 397,9392 L 397,2728 C 397,2376 682,2091 1034,2091 L 11772,2091 C 11829,2091 11884,2098 11936,2112 12208,2185 12409,2433 12409,2728 L 12409,9392 Z"/>
        <path fill="rgb(179,179,179)" stroke="none" d="M 12409,3361 L 397,3361 397,2727 C 397,2376 682,2091 1034,2091 L 11772,2091 C 12124,2091 12409,2376 12409,2727 L 12409,3361 Z"/>
        <path fill="rgb(153,153,153)" stroke="none" d="M 2700,4181 L 1127,4181 1127,3744 4273,3744 4273,4181 2700,4181 Z"/>
        <path fill="rgb(255,255,255)" stroke="none" d="M 6803,5907 L 6803,9392 11717,9392 11717,5907 6803,5907 Z"/>
        <path fill="rgb(19,201,202)" stroke="none" d="M 7039,8737 L 7039,9174 11510,9174 11510,8737 7039,8737 Z"/>
        <path fill="rgb(165,165,165)" stroke="none" d="M 7039,7891 L 7039,8328 7594,8328 7594,7891 7039,7891 Z"/>
        <path fill="rgb(255,188,88)" stroke="none" d="M 7039,7044 L 7039,7482 9288,7482 9288,7044 7039,7044 Z"/>
        <path fill="rgb(153,153,153)" stroke="none" d="M 7039,6198 L 7039,6635 10902,6635 10902,6198 7039,6198 Z"/>
        <path fill="rgb(165,165,165)" stroke="none" d="M 1667,2726 C 1667,2799 1651,2861 1614,2924 1578,2988 1532,3033 1469,3070 1406,3106 1343,3123 1270,3123 1197,3123 1135,3106 1072,3070 1009,3033 963,2988 927,2924 890,2861 874,2799 874,2726 874,2653 890,2591 927,2527 963,2464 1009,2419 1072,2382 1135,2346 1197,2329 1270,2329 1343,2329 1406,2346 1469,2382 1532,2419 1578,2464 1614,2527 1651,2591 1667,2653 1667,2726 L 1667,2726 Z"/>
        <path fill="rgb(255,188,88)" stroke="none" d="M 2726,2726 C 2726,2799 2709,2861 2672,2924 2636,2988 2590,3033 2527,3070 2464,3106 2402,3123 2329,3123 2256,3123 2193,3106 2130,3070 2067,3033 2021,2988 1985,2924 1948,2861 1932,2799 1932,2726 1932,2653 1948,2591 1985,2527 2021,2464 2067,2419 2130,2382 2193,2346 2256,2329 2329,2329 2402,2329 2464,2346 2527,2382 2590,2419 2636,2464 2672,2527 2709,2591 2726,2653 2726,2726 L 2726,2726 Z"/>
        <path fill="rgb(238,238,238)" stroke="none" d="M 12409,2727 L 12409,3361 11792,3361 C 11793,4311 11278,5228 10378,5698 10322,5723 10266,5745 10209,5766 L 10283,5907 11717,5907 11717,9392 7912,9392 8106,10028 11772,10028 C 11829,10028 11884,10021 11936,10007 12208,9934 12409,9686 12409,9392 L 12409,2728 C 12409,2584 12361,2452 12281,2345 12361,2452 12409,2584 12409,2727 Z"/>
        <path fill="rgb(203,203,203)" stroke="none" d="M 11462,2091 C 11472,2110 11482,2129 11492,2148 11695,2536 11791,2952 11792,3361 L 12409,3361 12409,2727 C 12409,2584 12361,2452 12281,2345 L 12281,2345 C 12281,2345 12280,2344 12280,2344 12280,2344 12280,2343 12280,2343 12280,2343 12279,2343 12279,2343 12279,2342 12279,2342 12279,2342 L 12278,2341 C 12194,2231 12074,2149 11936,2112 11884,2098 11829,2091 11772,2091 L 11462,2091 Z"/>
        <path fill="rgb(255,255,255)" stroke="none" d="M 10283,5907 L 10424,6177 C 10410,6184 10396,6191 10382,6198 L 10902,6198 10902,6635 7072,6635 7197,7044 9288,7044 9288,7482 7330,7482 7455,7891 7594,7891 7594,8328 7588,8328 7713,8737 11510,8737 11510,9174 7846,9174 7912,9392 11717,9392 11717,5907 10283,5907 Z"/>
        <path fill="rgb(110,198,235)" stroke="none" d="M 7713,8737 L 7846,9174 11510,9174 11510,8737 7713,8737 Z"/>
        <path fill="rgb(253,165,137)" stroke="none" d="M 7455,7891 L 7588,8328 7594,8328 7594,7891 7455,7891 Z"/>
        <path fill="rgb(251,233,142)" stroke="none" d="M 7197,7044 L 7330,7482 9288,7482 9288,7044 7197,7044 Z"/>
        <path fill="rgb(238,238,238)" stroke="none" d="M 6074,3361 L 6850,5907 8514,5907 C 8476,5899 8437,5891 8398,5882 L 8372,5876 C 7730,5674 7164,5228 6828,4584 6624,4192 6527,3773 6529,3361 L 6074,3361 Z"/>
        <path fill="rgb(203,203,203)" stroke="none" d="M 5687,2091 L 6074,3361 6529,3361 C 6529,3094 6571,2830 6650,2578 6703,2409 6773,2246 6858,2091 L 5687,2091 Z"/>
        <path fill="rgb(255,255,255)" stroke="none" d="M 6850,5907 L 7039,6526 7039,6198 8467,6198 8556,5915 C 8542,5912 8528,5910 8514,5907 L 6850,5907 Z"/>
        <path fill="rgb(186,186,186)" stroke="none" d="M 10382,6198 C 10005,6387 9604,6476 9208,6476 8939,6476 8672,6435 8418,6355 L 8467,6198 7039,6198 7039,6526 7072,6635 10902,6635 10902,6198 10382,6198 Z"/>
        <path fill="rgb(206,206,206)" stroke="none" d="M 9707,5907 L 10283,5907 10209,5766 C 10045,5827 9877,5874 9707,5907 Z"/>
        <path fill="rgb(219,219,219)" stroke="none" d="M 9707,5907 C 9510,5945 9311,5964 9111,5964 8925,5964 8740,5947 8556,5915 L 8467,6198 10382,6198 C 10396,6191 10410,6184 10424,6177 L 10283,5907 9707,5907 Z"/>
        <path fill="rgb(164,164,164)" stroke="none" d="M 8467,6198 L 8418,6355 C 8672,6435 8939,6476 9208,6476 9604,6476 10005,6387 10382,6198 L 8467,6198 Z"/>
        <path fill="rgb(219,219,219)" stroke="none" d="M 7942,1034 C 7467,1282 7100,1655 6858,2091 L 11462,2091 C 11122,1478 10572,1051 9948,856 9694,776 9427,734 9158,734 8747,734 8331,831 7942,1034 Z"/>
        <path fill="rgb(159,159,159)" stroke="none" d="M 6858,2091 L 6858,2091 11462,2091 11462,2091 6858,2091 Z"/>
        <path fill="rgb(206,206,206)" stroke="none" d="M 6529,3361 C 6527,3773 6624,4192 6828,4584 7164,5228 7730,5674 8372,5876 L 8398,5882 C 8437,5891 8476,5899 8514,5907 L 9707,5907 C 9877,5874 10045,5827 10209,5766 10266,5745 10322,5723 10378,5698 11278,5228 11793,4311 11792,3361 L 6529,3361 Z"/>
        <path fill="rgb(178,178,178)" stroke="none" d="M 6858,2091 C 6773,2246 6703,2409 6650,2578 6571,2830 6529,3094 6529,3361 L 11792,3361 C 11791,2952 11695,2536 11492,2148 11482,2129 11472,2110 11462,2091 L 6858,2091 Z"/>
        <path fill="rgb(219,219,219)" stroke="none" d="M 8514,5907 C 8528,5910 8542,5912 8556,5915 8740,5947 8925,5964 9111,5964 9311,5964 9510,5945 9707,5907 L 8514,5907 Z"/>
        <path fill="rgb(255,188,88)" stroke="none" d="M 9160,3009 L 9022,3450 8372,5519 C 7730,5317 7164,4870 6828,4226 6492,3582 6448,2863 6650,2221 L 8858,2914 9160,3009 9160,3009 Z"/>
        <path fill="rgb(19,201,202)" stroke="none" d="M 10424,5820 C 10226,5923 10021,5998 9813,6048 9345,6159 8863,6137 8418,5997 L 9118,3767 9206,3487 10424,5820 10424,5820 Z"/>
        <path fill="rgb(165,165,165)" stroke="none" d="M 10378,5341 L 9160,3009 8858,2914 6650,2221 C 6852,1578 7298,1013 7942,676 8010,641 8078,609 8147,581 8736,334 9373,318 9948,499 10591,700 11156,1147 11493,1791 12165,3079 11666,4668 10378,5341 L 10378,5341 Z"/>
        <path fill="rgb(255,255,255)" stroke="none" d="M 1089,4478 L 1089,9392 6003,9392 6003,4478 1089,4478 Z"/>
        <path fill="rgb(43,224,198)" stroke="none" d="M 1537,6733 L 1537,9114 2490,9114 2490,6733 1537,6733 Z"/>
        <path fill="rgb(255,188,88)" stroke="none" d="M 3069,5940 L 3069,9114 4022,9114 4022,5940 3069,5940 Z"/>
        <path fill="rgb(165,165,165)" stroke="none" d="M 4602,5067 L 4602,9114 5554,9114 5554,5067 4602,5067 Z"/>
        <path fill="rgb(19,201,202)" stroke="none" d="M 6438,12045 L 13,12045 13,8632 6438,8632 6438,12045 Z"/>
        <path fill="rgb(242,242,242)" stroke="none" d="M 410,9029 L 6041,9029 6041,11648 410,11648 410,9029 Z"/>
        <path fill="rgb(165,165,165)" stroke="none" d="M 2326,10823 L 2094,11137 1915,11006 2307,10475 2827,11039 3644,9563 4267,10564 4998,9261 5191,9370 4277,11001 3655,10002 2872,11416 2326,10823 Z"/>
        <path fill="rgb(153,153,153)" stroke="none" d="M 1058,9770 L 701,9770 701,9479 1415,9479 1415,9770 1058,9770 Z"/>
        <path fill="rgb(153,153,153)" stroke="none" d="M 1058,10484 L 701,10484 701,10193 1415,10193 1415,10484 1058,10484 Z"/>
        <path fill="rgb(153,153,153)" stroke="none" d="M 1058,11198 L 701,11198 701,10907 1415,10907 1415,11198 1058,11198 Z"/>
        <path fill="rgb(110,198,235)" stroke="none" d="M 5554,8632 L 4602,8632 4022,8632 3069,8632 2490,8632 2471,8632 2591,9029 6041,9029 6041,11648 3390,11648 3511,12045 6438,12045 6438,8632 5554,8632 Z"/>
        <path fill="rgb(246,246,246)" stroke="none" d="M 2591,9029 L 3070,10600 3644,9563 4267,10564 4998,9261 5191,9370 4277,11001 3655,10002 3160,10895 3390,11648 6041,11648 6041,9029 2591,9029 Z"/>
        <path fill="rgb(253,165,137)" stroke="none" d="M 4267,10564 L 3644,9563 3070,10600 3160,10895 3655,10002 4277,11001 5191,9370 4998,9261 4267,10564 Z"/>
        <path fill="rgb(204,204,204)" stroke="none" d="M 10429,11070 L 10654,10523 11322,11191 C 11360,11230 11411,11249 11462,11249 11513,11249 11564,11230 11602,11191 11680,11114 11680,10988 11602,10911 L 10934,10242 11481,10018 9403,8992 10429,11070 10429,11070 Z"/>
        <path fill="rgb(128,128,128)" stroke="none" d="M 10429,11070 L 10654,10523 11322,11191 C 11360,11230 11411,11249 11462,11249 11513,11249 11564,11230 11602,11191 L 9403,8992 10429,11070 10429,11070 Z"/>
       </g>
      </g>
     </g>
    </g>
   </g>
  </g>
 </g>
</svg>