<svg width="28" height="26" viewBox="0 0 28 26" fill="none" xmlns="http://www.w3.org/2000/svg">
<path d="M14 0C16.5312 0 18.8724 0.49523 21.0234 1.48569C23.1745 2.47615 24.875 3.82296 26.125 5.52614C27.375 7.22931 28 9.08707 28 11.0994C28 13.1118 27.375 14.9722 26.125 16.6806C24.875 18.389 23.1771 19.7384 21.0312 20.7289C18.8854 21.7194 16.5417 22.2146 14 22.2146C13.1979 22.2146 12.3698 22.1569 11.5156 22.0417C7.80729 24.6305 5.83333 25.9406 5.59375 25.972C5.47917 26.014 5.36979 26.0087 5.26562 25.9563C5.22396 25.9249 5.19271 25.883 5.17188 25.8306C5.15104 25.7782 5.14062 25.731 5.14062 25.6891V25.6262C5.20312 25.2174 5.67708 23.5142 6.5625 20.5167C4.55208 19.5105 2.95573 18.1768 1.77344 16.5155C0.591146 14.8543 0 13.0489 0 11.0994C0 9.08707 0.625 7.22931 1.875 5.52614C3.125 3.82296 4.82552 2.47615 6.97656 1.48569C9.1276 0.49523 11.4688 0 14 0ZM6.90625 14.0394V9.21285H8.14062C8.30729 9.21285 8.48177 9.15258 8.66406 9.03205C8.84635 8.91152 8.9375 8.74644 8.9375 8.53682C8.9375 8.3272 8.85417 8.15164 8.6875 8.01015C8.52083 7.86865 8.35938 7.7979 8.20312 7.7979H4.14062C3.96354 7.7979 3.79688 7.85031 3.64062 7.95512C3.48438 8.05993 3.40625 8.23287 3.40625 8.47393C3.40625 8.715 3.48958 8.89841 3.65625 9.02419C3.82292 9.14996 4.01042 9.21285 4.21875 9.21285H5.45312V14.0394C5.45312 14.3014 5.51562 14.5163 5.64062 14.684C5.76562 14.8517 5.94271 14.9355 6.17188 14.9355C6.40104 14.9355 6.58073 14.8412 6.71094 14.6525C6.84115 14.4639 6.90625 14.2595 6.90625 14.0394ZM13.6719 14.9355C14.0573 14.7888 14.1771 14.4167 14.0312 13.8193C13.9896 13.683 13.6953 12.8681 13.1484 11.3746C12.6016 9.88101 12.2865 9.02943 12.2031 8.81981C11.9219 8.13854 11.5365 7.7979 11.0469 7.7979C10.5156 7.7979 10.1042 8.13854 9.8125 8.81981C9.72917 8.99798 9.41146 9.86529 8.85938 11.4217C8.30729 12.9782 8.02083 13.7773 8 13.8193C7.92708 13.9136 7.90885 14.0865 7.94531 14.3381C7.98177 14.5896 8.09375 14.7626 8.28125 14.8569C8.48958 14.9512 8.69271 14.9617 8.89062 14.8883C9.08854 14.815 9.22396 14.7049 9.29688 14.5582L9.67188 13.5206H12.3906C12.5052 13.8979 12.5885 14.1442 12.6406 14.2595C12.6927 14.3643 12.75 14.4691 12.8125 14.5739C12.875 14.6787 12.9896 14.7809 13.1562 14.8805C13.3229 14.98 13.4948 14.9984 13.6719 14.9355ZM17.875 14.9355C18.0938 14.9355 18.2943 14.8674 18.4766 14.7311C18.6589 14.5949 18.75 14.4114 18.75 14.1809C18.75 13.9503 18.6667 13.7695 18.5 13.6385C18.3333 13.5075 18.125 13.442 17.875 13.442H16.1406V8.69403C16.1406 8.47393 16.0755 8.26955 15.9453 8.08089C15.8151 7.89223 15.6354 7.7979 15.4062 7.7979C15.1771 7.7979 15 7.88175 14.875 8.04945C14.75 8.21715 14.6875 8.43201 14.6875 8.69403V14.0394C14.6875 14.3014 14.75 14.5163 14.875 14.684C15 14.8517 15.1771 14.9355 15.4062 14.9355C15.4167 14.9355 15.4349 14.9329 15.4609 14.9276C15.487 14.9224 15.5052 14.9198 15.5156 14.9198C15.526 14.9198 15.5443 14.9224 15.5703 14.9276C15.5964 14.9329 15.6146 14.9355 15.625 14.9355H17.875ZM24.0312 14.8254C24.2083 14.6578 24.2969 14.4665 24.2969 14.2516C24.2969 14.0368 24.2292 13.8455 24.0938 13.6778C24.0312 13.5834 23.375 12.6978 22.125 11.0208C22.7292 10.4024 23.3385 9.78406 23.9531 9.16568C24.1094 9.00847 24.2057 8.82243 24.2422 8.60756C24.2786 8.3927 24.2188 8.19094 24.0625 8.00228C23.8854 7.83459 23.6953 7.76646 23.4922 7.7979C23.2891 7.82935 23.099 7.93416 22.9219 8.11234C22.8906 8.14378 22.7552 8.28265 22.5156 8.52896C22.276 8.77526 21.9661 9.09231 21.5859 9.48011C21.2057 9.86791 20.8698 10.2138 20.5781 10.5177V8.69403C20.5781 8.47393 20.513 8.26955 20.3828 8.08089C20.2526 7.89223 20.0729 7.7979 19.8438 7.7979C19.6146 7.7979 19.4375 7.88175 19.3125 8.04945C19.1875 8.21715 19.125 8.43201 19.125 8.69403V14.0394C19.125 14.3014 19.1875 14.5163 19.3125 14.684C19.4375 14.8517 19.6146 14.9355 19.8438 14.9355C20.0729 14.9355 20.2526 14.8412 20.3828 14.6525C20.513 14.4639 20.5781 14.2595 20.5781 14.0394V12.6087C20.6198 12.5668 20.6979 12.4856 20.8125 12.365C20.9271 12.2445 21.0208 12.1475 21.0938 12.0742C21.7812 13.0175 22.3958 13.8507 22.9375 14.5739C23.0833 14.773 23.2526 14.9014 23.4453 14.9591C23.638 15.0167 23.8333 14.9722 24.0312 14.8254ZM10.0938 12.1056L11.0469 9.29145L11.9844 12.1056H10.0938Z" fill="#FF8084"/>
</svg>
