<svg width="25" height="25" viewBox="0 0 25 25" fill="none" xmlns="http://www.w3.org/2000/svg">
<path d="M7.62801 24.9787C6.12984 24.9787 4.62619 25.0303 3.12803 24.9729C1.35548 24.8984 0 23.345 0 21.4935C0 15.5148 0.0109756 9.53608 0 3.55165C0 1.50524 1.53109 0.0779213 3.29267 0.0263314C5.13656 -0.0252586 6.98594 0.0148669 8.83532 0.0148669C8.86824 0.0148669 8.91215 -0.00232973 8.92861 0.0549925C8.91763 0.158172 8.81885 0.169637 8.75849 0.209762C7.67191 0.8747 6.67862 1.67148 5.84448 2.65742C4.46705 4.28537 3.51218 6.15407 3.1884 8.32658C2.61767 12.1614 3.76461 15.4173 6.36033 18.1344C6.8213 18.6216 6.88167 19 6.51399 19.6534C6.06948 20.4388 5.39448 20.9719 4.67558 21.4591C4.59876 21.505 4.52193 21.5623 4.4451 21.6139C4.32985 21.717 4.4012 21.7686 4.49998 21.8145C4.52193 21.8661 4.54937 21.9119 4.58229 21.9578C5.21339 22.5425 5.81155 23.1673 6.43167 23.7634C6.72252 24.0443 7.01338 24.3367 7.29325 24.629C7.4085 24.7379 7.60057 24.7723 7.62801 24.9787V24.9787Z" fill="#008FE5"/>
<path d="M7.57618 24.9769C7.54888 24.7677 7.35779 24.7318 7.24314 24.6062C6.9647 24.2953 6.28918 23.7376 5.99982 23.4446C5.38288 22.8228 4.62786 21.9804 4 21.3705C4.02184 21.4243 3.96724 21.3227 4 21.3705C5.50001 21.3705 7.21584 21.7662 8.55345 21.3177C9.0066 21.1683 9.45975 21.0188 9.91836 20.8932C10.2296 20.8035 10.5571 20.8215 10.8574 20.9411C14.3188 22.2445 17.7366 22.1249 21.0997 20.5106C22.4701 19.8469 23.7203 18.9141 24.7795 17.7482C24.8341 17.6884 24.8723 17.5988 24.9706 17.5928C25.0197 17.6765 24.9924 17.7662 24.9924 17.8559V21.3536C25.0033 23.3506 23.5402 24.9769 21.7166 24.9949H21.6893C19.7239 25.0068 17.7584 24.9949 15.7929 24.9949H7.90375C7.79456 24.9829 7.68537 24.9769 7.57618 24.9769Z" fill="#008FE5"/>
<path d="M8.26283 12.5195C9.15645 12.5195 9.9968 12.5136 10.8312 12.5195C11.2988 12.5254 11.5532 12.7205 11.6006 13.0929C11.6538 13.56 11.3816 13.8733 10.8727 13.8792C9.91395 13.891 8.96115 13.8851 8.00244 13.8851C7.72429 13.8851 7.45206 13.8969 7.17392 13.8792C6.83067 13.8614 6.49335 13.7905 6.32764 13.4358C6.16194 13.0811 6.2803 12.7619 6.50518 12.4722C7.41655 11.3136 8.33384 10.149 9.25113 8.9903C9.3044 8.91936 9.35766 8.84842 9.41092 8.78339C9.35174 8.6829 9.26889 8.73019 9.19787 8.72428C8.55873 8.71836 7.91367 8.72428 7.27452 8.71837C7.12657 8.71837 6.97862 8.70063 6.83659 8.67107C6.49927 8.59422 6.29214 8.25726 6.36907 7.92621C6.42233 7.70157 6.59987 7.51831 6.82476 7.46511C6.96679 7.42964 7.11474 7.4119 7.26269 7.4119C8.31609 7.40599 9.37541 7.40599 10.4288 7.4119C10.6182 7.40599 10.8016 7.42964 10.9851 7.47693C11.3875 7.6129 11.5592 7.98533 11.3994 8.37549C11.2573 8.71245 11.0325 9.00212 10.8076 9.29179C10.0323 10.279 9.25705 11.2603 8.48179 12.2358C8.4167 12.3126 8.35752 12.3895 8.26283 12.5195V12.5195Z" fill="#008FE5"/>
<path d="M14.8837 9.08425C15.0132 8.89485 15.1482 8.71767 15.3695 8.6688C15.796 8.57104 16.1954 8.88263 16.2008 9.37141C16.217 10.5933 16.2116 11.8153 16.2008 13.0372C16.2008 13.3549 16.0173 13.636 15.7528 13.7276C15.4829 13.8437 15.1752 13.752 14.9971 13.4893C14.9053 13.361 14.8675 13.3366 14.738 13.4527C14.2467 13.9048 13.6907 13.9842 13.0916 13.7643C12.1307 13.4099 11.7367 12.5607 11.6287 11.5281C11.5154 10.4101 11.8446 9.45694 12.7299 8.87041C13.464 8.37553 14.209 8.4183 14.8837 9.08425V9.08425ZM12.9728 11.3143C12.9836 11.5831 13.0592 11.8397 13.1995 12.0535C13.491 12.4934 14.047 12.5851 14.4411 12.2552C14.5058 12.2002 14.5652 12.133 14.6192 12.0535C14.9215 11.5892 14.9215 10.8255 14.6192 10.3612C14.4681 10.1229 14.2305 9.98237 13.9768 9.97626C13.3831 9.9335 12.9674 10.4528 12.9728 11.3143V11.3143ZM18.6245 11.3509C18.5813 9.78075 19.4936 8.6077 20.7891 8.56493C22.1656 8.51605 23.1696 9.56081 23.2128 11.0882C23.256 12.634 22.4193 13.7276 21.1292 13.8742C19.7203 14.0331 18.6029 12.8784 18.6245 11.3509V11.3509ZM19.9794 11.2043C19.9686 11.5098 20.0496 11.8092 20.2115 12.0597C20.5084 12.4996 21.0644 12.5851 21.453 12.2429C21.5124 12.1941 21.561 12.133 21.6096 12.0719C21.9227 11.6075 21.9227 10.8255 21.615 10.3612C21.4638 10.129 21.2263 9.98237 20.9726 9.97626C20.3896 9.93961 19.9794 10.4406 19.9794 11.2043V11.2043ZM18.1495 10.1351C18.1495 11.0821 18.1549 12.0291 18.1495 12.9761C18.1549 13.4099 17.8526 13.7704 17.4693 13.7826C17.4046 13.7826 17.3344 13.7765 17.2696 13.7581C16.9997 13.6787 16.7946 13.3549 16.7946 12.97V8.11282C16.7946 7.82566 16.7892 7.54462 16.7946 7.25746C16.8 6.78702 17.0645 6.48154 17.4639 6.48154C17.8742 6.47543 18.1495 6.78091 18.1495 7.26968C18.1549 8.22279 18.1495 9.18201 18.1495 10.1351V10.1351Z" fill="#008FE5"/>
</svg>
